<?xml version="1.0" encoding="UTF-8" standalone="no"?>
<!-- Created with Inkscape (http://www.inkscape.org/) -->

<svg
   xmlns:dc="http://purl.org/dc/elements/1.1/"
   xmlns:cc="http://creativecommons.org/ns#"
   xmlns:rdf="http://www.w3.org/1999/02/22-rdf-syntax-ns#"
   xmlns:svg="http://www.w3.org/2000/svg"
   xmlns="http://www.w3.org/2000/svg"
   xmlns:sodipodi="http://sodipodi.sourceforge.net/DTD/sodipodi-0.dtd"
   xmlns:inkscape="http://www.inkscape.org/namespaces/inkscape"
   id="svg3004"
   version="1.1"
   inkscape:version="0.92.2 2405546, 2018-03-11"
   width="70.557816"
   height="80.472435"
   xml:space="preserve"
   sodipodi:docname="cake.svg"><metadata
     id="metadata3010"><rdf:RDF><cc:Work
         rdf:about=""><dc:format>image/svg+xml</dc:format><dc:type
           rdf:resource="http://purl.org/dc/dcmitype/StillImage" /><dc:title></dc:title></cc:Work></rdf:RDF></metadata><defs
     id="defs3008"><clipPath
       clipPathUnits="userSpaceOnUse"
       id="clipPath3020"><path
         d="M 0,0 H 326 V 170 H 0 Z"
         id="path3022"
         inkscape:connector-curvature="0" /></clipPath><clipPath
       clipPathUnits="userSpaceOnUse"
       id="clipPath3030"><path
         d="M 0,170.991 H 326.984 V 0 H 0 Z"
         id="path3032"
         inkscape:connector-curvature="0" /></clipPath><clipPath
       clipPathUnits="userSpaceOnUse"
       id="clipPath3036"><path
         d="M 0,0 H 326 V 170 H 0 Z"
         id="path3038"
         inkscape:connector-curvature="0" /></clipPath></defs><sodipodi:namedview
     pagecolor="#ffffff"
     bordercolor="#666666"
     borderopacity="1"
     objecttolerance="10"
     gridtolerance="10"
     guidetolerance="10"
     inkscape:pageopacity="0"
     inkscape:pageshadow="2"
     inkscape:window-width="3840"
     inkscape:window-height="2099"
     id="namedview3006"
     showgrid="false"
     fit-margin-top="0"
     fit-margin-left="0"
     fit-margin-right="0"
     fit-margin-bottom="0"
     inkscape:zoom="5.12"
     inkscape:cx="14.140254"
     inkscape:cy="42.907191"
     inkscape:window-x="0"
     inkscape:window-y="0"
     inkscape:window-maximized="1"
     inkscape:current-layer="g3012" /><g
     id="g3012"
     inkscape:groupmode="layer"
     inkscape:label="cakeml-with-subtitle"
     transform="matrix(1.25,0,0,-1.25,-89.265938,153.70287)"><g
       id="g3014" /><path
       inkscape:connector-curvature="0"
       id="path3104"
       style="fill:#000000;fill-opacity:1;fill-rule:nonzero;stroke:none"
       d="m 127.814,104.8213 -6.269,2.38 -3.447,1.308 -38.066,14.453 c -5.248,-4.306 -8.597,-10.84 -8.597,-18.159 0,-7.272 3.308,-13.771 8.5,-18.078 0.01,-0.008 0.019,-0.017 0.029,-0.025 l 7.867,2.97 0.107,0.041 7.892,2.979 0.096,0.036 7.904,2.985 0.084,0.031 7.915,2.989 0.072,0.027 6.197,2.339 1.729,0.658 0.061,0.022 7.934,3.013 0.037,0.013 z" /><path
       inkscape:connector-curvature="0"
       id="path3106"
       style="fill:#000000;fill-opacity:1;fill-rule:nonzero;stroke:none"
       d="m 79.9644,82.874 c -0.5,0.413 -0.977,0.853 -1.44,1.305 -3.748,3.656 -6.28,8.549 -6.925,14.025 -0.034,0.289 -0.056,0.582 -0.079,0.874 v -1.75 c -0.051,-0.627 -0.085,-1.259 -0.085,-1.899 0,-0.64 0.034,-1.272 0.085,-1.9 0.27,-3.366 1.242,-6.534 2.783,-9.35 1.439,-2.631 3.366,-4.957 5.661,-6.854 l 47.853,18.162 v 5.549 z" /><path
       inkscape:connector-curvature="0"
       id="path3108"
       style="fill:#000000;fill-opacity:1;fill-rule:nonzero;stroke:none"
       d="m 79.9644,73.8326 c -0.5,0.413 -0.977,0.853 -1.44,1.306 -3.748,3.655 -6.28,8.549 -6.925,14.025 -0.034,0.289 -0.056,0.581 -0.079,0.874 v -1.751 c -0.051,-0.627 -0.085,-1.259 -0.085,-1.898 0,-0.641 0.034,-1.273 0.085,-1.9 0.27,-3.367 1.242,-6.535 2.783,-9.35 1.439,-2.631 3.366,-4.957 5.661,-6.855 l 47.853,18.162 v 5.549 z" /><path
       inkscape:connector-curvature="0"
       id="path3108-3"
       style="fill:#000000;fill-opacity:1;fill-rule:nonzero;stroke:none;stroke-width:1"
       d="m 79.94175,64.133351 c -0.5,0.413 -0.977,0.853 -1.44,1.306 -3.748,3.655 -6.28,8.549 -6.925,14.025 -0.034,0.289 -0.056,0.581 -0.079,0.874 v -1.751 c -0.051,-0.627 -0.085,-1.259 -0.085,-1.898 0,-0.641 0.034,-1.273 0.085,-1.9 0.27,-3.367 1.242,-6.535 2.783,-9.35 1.439,-2.631 3.366,-4.957 5.661,-6.855 l 47.853,18.162 v 5.549 z" /></g></svg>